<svg xmlns="http://www.w3.org/2000/svg" xmlns:xlink="http://www.w3.org/1999/xlink" width="500" zoomAndPan="magnify" viewBox="0 0 375 374.999991" height="500" preserveAspectRatio="xMidYMid meet" version="1.0"><defs><g/></defs><rect x="-37.5" width="450" fill="#ffffff" y="-37.499999" height="449.999989" fill-opacity="1"/><rect x="-37.5" width="450" fill="#ffffff" y="-37.499999" height="449.999989" fill-opacity="1"/><rect x="-37.5" width="450" fill="#ffffff" y="-37.499999" height="449.999989" fill-opacity="1"/><g fill="#2b2b2b" fill-opacity="1"><g transform="translate(160.034012, 281.684353)"><g><path d="M 113.6875 1.570312 L 116.238281 1.570312 L 116.238281 -112.507812 C 116.238281 -128.609375 118.007812 -133.125 124.09375 -134.890625 L 124.09375 -137.445312 L 99.351562 -137.445312 L 99.351562 -134.890625 C 108.1875 -132.535156 112.902344 -127.039062 112.902344 -104.65625 L 112.902344 -26.3125 L 27.097656 -137.445312 L 7.855469 -137.445312 L 7.855469 -134.890625 C 15.707031 -133.125 18.0625 -128.609375 18.0625 -112.507812 L 18.0625 -24.9375 C 18.0625 -8.835938 16.101562 -4.320312 10.210938 -2.550781 L 10.210938 0 L 34.753906 0 L 34.753906 -2.550781 C 25.917969 -4.910156 21.207031 -10.40625 21.207031 -32.789062 L 21.207031 -118.792969 Z M 113.6875 1.570312 "/></g></g></g><g fill="#2b2b2b" fill-opacity="1"><g transform="translate(99.292967, 227.623927)"><g><path d="M 10.015625 0 L 41.824219 0 L 41.824219 -2.550781 C 35.734375 -4.320312 33.96875 -8.835938 33.96875 -24.9375 L 33.96875 -54.390625 L 47.910156 -54.390625 C 84.429688 -54.390625 103.476562 -72.648438 103.476562 -98.765625 C 103.476562 -117.808594 90.515625 -137.445312 49.871094 -137.445312 L 10.015625 -137.445312 L 10.015625 -134.890625 C 15.90625 -133.125 17.867188 -128.609375 17.867188 -112.507812 L 17.867188 -24.9375 C 17.867188 -8.835938 15.90625 -4.320312 10.015625 -2.550781 Z M 33.96875 -57.335938 L 33.96875 -134.105469 C 36.324219 -134.304688 39.464844 -134.5 42.214844 -134.5 C 73.828125 -134.5 86.199219 -115.257812 86.199219 -94.246094 C 86.199219 -71.078125 72.648438 -57.335938 47.515625 -57.335938 Z M 33.96875 -57.335938 "/></g></g></g><path fill="#ffffff" d="M 85.171875 199.257812 L 289.589844 199.257812 C 295.53125 199.257812 300.347656 204.078125 300.347656 210.027344 L 300.347656 217.59375 C 300.347656 223.539062 295.53125 228.363281 289.589844 228.363281 L 85.171875 228.363281 C 79.230469 228.363281 74.417969 223.539062 74.417969 217.59375 L 74.417969 210.027344 C 74.417969 204.078125 79.230469 199.257812 85.171875 199.257812 " fill-opacity="1" fill-rule="nonzero"/><g fill="#2b2b2b" fill-opacity="1"><g transform="translate(84.100326, 219.810382)"><g><path d="M 1.03125 0 L 4.3125 0 L 4.3125 -0.261719 C 3.683594 -0.445312 3.503906 -0.910156 3.503906 -2.570312 L 3.503906 -5.609375 L 4.941406 -5.609375 C 8.707031 -5.609375 10.671875 -7.492188 10.671875 -10.1875 C 10.671875 -12.148438 9.335938 -14.175781 5.144531 -14.175781 L 1.03125 -14.175781 L 1.03125 -13.910156 C 1.640625 -13.730469 1.84375 -13.265625 1.84375 -11.601562 L 1.84375 -2.570312 C 1.84375 -0.910156 1.640625 -0.445312 1.03125 -0.261719 Z M 3.503906 -5.914062 L 3.503906 -13.832031 C 3.746094 -13.851562 4.070312 -13.871094 4.355469 -13.871094 C 7.613281 -13.871094 8.890625 -11.886719 8.890625 -9.71875 C 8.890625 -7.332031 7.492188 -5.914062 4.902344 -5.914062 Z M 3.503906 -5.914062 "/></g></g></g><g fill="#2b2b2b" fill-opacity="1"><g transform="translate(98.458641, 219.810382)"><g><path d="M 1.03125 0 L 4.3125 0 L 4.3125 -0.261719 C 3.683594 -0.445312 3.503906 -0.910156 3.503906 -2.570312 L 3.503906 -7.351562 L 11.21875 -7.351562 L 11.21875 -2.570312 C 11.21875 -0.910156 11.015625 -0.445312 10.410156 -0.261719 L 10.410156 0 L 13.6875 0 L 13.6875 -0.261719 C 13.0625 -0.445312 12.878906 -0.910156 12.878906 -2.570312 L 12.878906 -11.601562 C 12.878906 -13.265625 13.0625 -13.730469 13.6875 -13.910156 L 13.6875 -14.175781 L 10.410156 -14.175781 L 10.410156 -13.910156 C 11.015625 -13.730469 11.21875 -13.265625 11.21875 -11.601562 L 11.21875 -7.675781 L 3.503906 -7.675781 L 3.503906 -11.601562 C 3.503906 -13.265625 3.683594 -13.730469 4.3125 -13.910156 L 4.3125 -14.175781 L 1.03125 -14.175781 L 1.03125 -13.910156 C 1.640625 -13.730469 1.84375 -13.265625 1.84375 -11.601562 L 1.84375 -2.570312 C 1.84375 -0.910156 1.640625 -0.445312 1.03125 -0.261719 Z M 1.03125 0 "/></g></g></g><g fill="#2b2b2b" fill-opacity="1"><g transform="translate(116.340442, 219.810382)"><g><path d="M 1.03125 0 L 4.3125 0 L 4.3125 -0.261719 C 3.683594 -0.445312 3.503906 -0.910156 3.503906 -2.570312 L 3.503906 -11.601562 C 3.503906 -13.265625 3.683594 -13.730469 4.3125 -13.910156 L 4.3125 -14.175781 L 1.03125 -14.175781 L 1.03125 -13.910156 C 1.640625 -13.730469 1.84375 -13.265625 1.84375 -11.601562 L 1.84375 -2.570312 C 1.84375 -0.910156 1.640625 -0.445312 1.03125 -0.261719 Z M 1.03125 0 "/></g></g></g><g fill="#2b2b2b" fill-opacity="1"><g transform="translate(124.866768, 219.810382)"><g><path d="M 1.03125 0 L 10.449219 0 L 10.589844 -2.289062 L 10.367188 -2.328125 C 9.660156 -0.808594 8.769531 -0.324219 6.824219 -0.324219 L 4.414062 -0.324219 C 3.828125 -0.324219 3.503906 -0.648438 3.503906 -1.234375 L 3.503906 -11.601562 C 3.503906 -13.265625 3.683594 -13.730469 4.3125 -13.910156 L 4.3125 -14.175781 L 1.03125 -14.175781 L 1.03125 -13.910156 C 1.640625 -13.730469 1.84375 -13.265625 1.84375 -11.601562 L 1.84375 -2.570312 C 1.84375 -0.910156 1.640625 -0.445312 1.03125 -0.261719 Z M 1.03125 0 "/></g></g></g><g fill="#2b2b2b" fill-opacity="1"><g transform="translate(139.042835, 219.810382)"><g><path d="M 1.03125 0 L 4.3125 0 L 4.3125 -0.261719 C 3.683594 -0.445312 3.503906 -0.910156 3.503906 -2.570312 L 3.503906 -11.601562 C 3.503906 -13.265625 3.683594 -13.730469 4.3125 -13.910156 L 4.3125 -14.175781 L 1.03125 -14.175781 L 1.03125 -13.910156 C 1.640625 -13.730469 1.84375 -13.265625 1.84375 -11.601562 L 1.84375 -2.570312 C 1.84375 -0.910156 1.640625 -0.445312 1.03125 -0.261719 Z M 1.03125 0 "/></g></g></g><g fill="#2b2b2b" fill-opacity="1"><g transform="translate(147.569163, 219.810382)"><g><path d="M 1.03125 0 L 4.3125 0 L 4.3125 -0.261719 C 3.683594 -0.445312 3.503906 -0.910156 3.503906 -2.570312 L 3.503906 -5.609375 L 4.941406 -5.609375 C 8.707031 -5.609375 10.671875 -7.492188 10.671875 -10.1875 C 10.671875 -12.148438 9.335938 -14.175781 5.144531 -14.175781 L 1.03125 -14.175781 L 1.03125 -13.910156 C 1.640625 -13.730469 1.84375 -13.265625 1.84375 -11.601562 L 1.84375 -2.570312 C 1.84375 -0.910156 1.640625 -0.445312 1.03125 -0.261719 Z M 3.503906 -5.914062 L 3.503906 -13.832031 C 3.746094 -13.851562 4.070312 -13.871094 4.355469 -13.871094 C 7.613281 -13.871094 8.890625 -11.886719 8.890625 -9.71875 C 8.890625 -7.332031 7.492188 -5.914062 4.902344 -5.914062 Z M 3.503906 -5.914062 "/></g></g></g><g fill="#2b2b2b" fill-opacity="1"><g transform="translate(161.92748, 219.810382)"><g/></g></g><g fill="#2b2b2b" fill-opacity="1"><g transform="translate(169.360303, 219.810382)"><g><path d="M 11.726562 0.160156 L 11.988281 0.160156 L 11.988281 -11.601562 C 11.988281 -13.265625 12.171875 -13.730469 12.796875 -13.910156 L 12.796875 -14.175781 L 10.246094 -14.175781 L 10.246094 -13.910156 C 11.15625 -13.667969 11.644531 -13.101562 11.644531 -10.792969 L 11.644531 -2.714844 L 2.792969 -14.175781 L 0.808594 -14.175781 L 0.808594 -13.910156 C 1.621094 -13.730469 1.863281 -13.265625 1.863281 -11.601562 L 1.863281 -2.570312 C 1.863281 -0.910156 1.660156 -0.445312 1.054688 -0.261719 L 1.054688 0 L 3.585938 0 L 3.585938 -0.261719 C 2.671875 -0.507812 2.1875 -1.074219 2.1875 -3.382812 L 2.1875 -12.25 Z M 11.726562 0.160156 "/></g></g></g><g fill="#2b2b2b" fill-opacity="1"><g transform="translate(186.148613, 219.810382)"><g><path d="M 7.230469 -11.785156 L 9.070312 -7.308594 L 6.90625 -2.003906 L 3.160156 -11.765625 C 2.570312 -13.324219 2.429688 -13.730469 3.058594 -13.910156 L 3.058594 -14.175781 L -0.0820312 -14.175781 L -0.0820312 -13.910156 C 0.363281 -13.730469 0.832031 -13.324219 1.417969 -11.765625 L 5.894531 0 L 6.460938 0 L 9.253906 -6.863281 L 12.070312 0 L 12.636719 0 L 16.867188 -11.765625 C 17.433594 -13.304688 17.921875 -13.730469 18.488281 -13.910156 L 18.488281 -14.175781 L 16.199219 -14.175781 L 16.199219 -13.910156 C 16.886719 -13.769531 17.011719 -13.082031 16.523438 -11.765625 L 13 -2.046875 L 10.265625 -8.667969 L 11.402344 -11.765625 C 11.96875 -13.304688 12.453125 -13.730469 13.019531 -13.910156 L 13.019531 -14.175781 L 10.792969 -14.175781 L 10.792969 -13.910156 C 11.460938 -13.769531 11.542969 -13.101562 11.035156 -11.765625 L 10.0625 -9.132812 L 8.972656 -11.804688 C 8.34375 -13.324219 8.179688 -13.730469 8.789062 -13.910156 L 8.789062 -14.175781 L 5.691406 -14.175781 L 5.691406 -13.910156 C 6.136719 -13.730469 6.621094 -13.324219 7.230469 -11.785156 Z M 7.230469 -11.785156 "/></g></g></g><g fill="#2b2b2b" fill-opacity="1"><g transform="translate(207.695662, 219.810382)"><g><path d="M -0.34375 0 L 1.945312 0 L 1.945312 -0.261719 C 1.253906 -0.40625 1.175781 -1.074219 1.699219 -2.390625 L 2.894531 -5.347656 L 8.605469 -5.347656 L 9.839844 -2.371094 C 10.488281 -0.851562 10.652344 -0.445312 10.023438 -0.261719 L 10.023438 0 L 13.164062 0 L 13.164062 -0.261719 C 12.738281 -0.445312 12.25 -0.851562 11.625 -2.371094 L 6.640625 -14.335938 L 5.125 -13.648438 L 5.304688 -13.222656 C 5.46875 -12.898438 5.488281 -12.636719 5.347656 -12.273438 L 1.355469 -2.390625 C 0.730469 -0.851562 0.222656 -0.445312 -0.34375 -0.261719 Z M 3.015625 -5.648438 L 5.710938 -12.3125 L 8.484375 -5.648438 Z M 3.015625 -5.648438 "/></g></g></g><g fill="#2b2b2b" fill-opacity="1"><g transform="translate(223.856218, 219.810382)"><g><path d="M 1.03125 0 L 5.164062 0 C 10.085938 0 11.785156 -2.390625 11.746094 -4.65625 C 11.726562 -6.640625 10.265625 -8.28125 6.964844 -8.445312 C 9.273438 -8.871094 10.164062 -10.125 10.164062 -11.503906 C 10.164062 -13.140625 8.890625 -14.175781 5.769531 -14.175781 L 1.03125 -14.175781 L 1.03125 -13.910156 C 1.640625 -13.730469 1.84375 -13.265625 1.84375 -11.601562 L 1.84375 -2.570312 C 1.84375 -0.910156 1.640625 -0.445312 1.03125 -0.261719 Z M 3.503906 -2.066406 L 3.503906 -8.179688 L 5.570312 -8.179688 C 8.605469 -8.179688 9.902344 -6.480469 9.902344 -4.152344 C 9.902344 -1.902344 8.648438 -0.304688 5.347656 -0.304688 L 4.554688 -0.304688 C 3.683594 -0.304688 3.503906 -0.609375 3.503906 -2.066406 Z M 3.503906 -8.484375 L 3.503906 -13.871094 L 5.042969 -13.871094 C 7.128906 -13.871094 8.324219 -12.816406 8.324219 -11.136719 C 8.324219 -9.660156 7.390625 -8.484375 5.386719 -8.484375 Z M 3.503906 -8.484375 "/></g></g></g><g fill="#2b2b2b" fill-opacity="1"><g transform="translate(239.429532, 219.810382)"><g><path d="M 7.308594 0.203125 C 10.125 0.203125 12.351562 -1.335938 12.351562 -5.40625 L 12.351562 -11.601562 C 12.351562 -13.265625 12.554688 -13.730469 13.164062 -13.910156 L 13.164062 -14.175781 L 10.652344 -14.175781 L 10.652344 -13.910156 C 11.542969 -13.667969 12.027344 -13.101562 12.027344 -10.792969 L 12.027344 -5.347656 C 12.027344 -1.378906 9.699219 -0.222656 7.957031 -0.222656 C 5.324219 -0.222656 3.238281 -1.578125 3.238281 -5.347656 L 3.238281 -11.601562 C 3.238281 -13.265625 3.441406 -13.730469 4.050781 -13.910156 L 4.050781 -14.175781 L 0.769531 -14.175781 L 0.769531 -13.910156 C 1.398438 -13.730469 1.578125 -13.265625 1.578125 -11.601562 L 1.578125 -5.222656 C 1.578125 -1.152344 4.414062 0.203125 7.308594 0.203125 Z M 7.308594 0.203125 "/></g></g></g><g fill="#2b2b2b" fill-opacity="1"><g transform="translate(256.359588, 219.810382)"><g><path d="M 7.230469 -11.785156 L 9.070312 -7.308594 L 6.90625 -2.003906 L 3.160156 -11.765625 C 2.570312 -13.324219 2.429688 -13.730469 3.058594 -13.910156 L 3.058594 -14.175781 L -0.0820312 -14.175781 L -0.0820312 -13.910156 C 0.363281 -13.730469 0.832031 -13.324219 1.417969 -11.765625 L 5.894531 0 L 6.460938 0 L 9.253906 -6.863281 L 12.070312 0 L 12.636719 0 L 16.867188 -11.765625 C 17.433594 -13.304688 17.921875 -13.730469 18.488281 -13.910156 L 18.488281 -14.175781 L 16.199219 -14.175781 L 16.199219 -13.910156 C 16.886719 -13.769531 17.011719 -13.082031 16.523438 -11.765625 L 13 -2.046875 L 10.265625 -8.667969 L 11.402344 -11.765625 C 11.96875 -13.304688 12.453125 -13.730469 13.019531 -13.910156 L 13.019531 -14.175781 L 10.792969 -14.175781 L 10.792969 -13.910156 C 11.460938 -13.769531 11.542969 -13.101562 11.035156 -11.765625 L 10.0625 -9.132812 L 8.972656 -11.804688 C 8.34375 -13.324219 8.179688 -13.730469 8.789062 -13.910156 L 8.789062 -14.175781 L 5.691406 -14.175781 L 5.691406 -13.910156 C 6.136719 -13.730469 6.621094 -13.324219 7.230469 -11.785156 Z M 7.230469 -11.785156 "/></g></g></g><g fill="#2b2b2b" fill-opacity="1"><g transform="translate(277.906626, 219.810382)"><g><path d="M -0.34375 0 L 1.945312 0 L 1.945312 -0.261719 C 1.253906 -0.40625 1.175781 -1.074219 1.699219 -2.390625 L 2.894531 -5.347656 L 8.605469 -5.347656 L 9.839844 -2.371094 C 10.488281 -0.851562 10.652344 -0.445312 10.023438 -0.261719 L 10.023438 0 L 13.164062 0 L 13.164062 -0.261719 C 12.738281 -0.445312 12.25 -0.851562 11.625 -2.371094 L 6.640625 -14.335938 L 5.125 -13.648438 L 5.304688 -13.222656 C 5.46875 -12.898438 5.488281 -12.636719 5.347656 -12.273438 L 1.355469 -2.390625 C 0.730469 -0.851562 0.222656 -0.445312 -0.34375 -0.261719 Z M 3.015625 -5.648438 L 5.710938 -12.3125 L 8.484375 -5.648438 Z M 3.015625 -5.648438 "/></g></g></g></svg>