<svg xmlns="http://www.w3.org/2000/svg" xmlns:xlink="http://www.w3.org/1999/xlink" width="500" zoomAndPan="magnify" viewBox="0 0 375 374.999991" height="500" preserveAspectRatio="xMidYMid meet" version="1.0"><defs><g/></defs><g fill="#808080" fill-opacity="1"><g transform="translate(151.420307, 322.937564)"><g><path d="M 168.9375 -118.53125 L 168.9375 1.25 L 161.203125 1.25 L 43.671875 -147.21875 L 43.671875 -56.890625 C 43.671875 -40.253906 44.414062 -28.273438 45.90625 -20.953125 C 47.40625 -13.640625 49.898438 -8.816406 53.390625 -6.484375 C 56.890625 -4.160156 62.632812 -3 70.625 -3 L 71.109375 0 L 9.734375 0 L 10.234375 -3 C 18.210938 -3 23.945312 -4.160156 27.4375 -6.484375 C 30.9375 -8.816406 33.476562 -13.640625 35.0625 -20.953125 C 36.644531 -28.273438 37.4375 -40.253906 37.4375 -56.890625 L 37.4375 -118.53125 C 37.4375 -135.164062 36.644531 -147.097656 35.0625 -154.328125 C 33.476562 -161.566406 30.976562 -166.304688 27.5625 -168.546875 C 24.15625 -170.796875 18.378906 -171.921875 10.234375 -171.921875 L 9.734375 -174.671875 L 43.671875 -174.671875 L 162.6875 -26.203125 L 162.6875 -118.53125 C 162.6875 -135 161.894531 -146.890625 160.3125 -154.203125 C 158.738281 -161.523438 156.203125 -166.304688 152.703125 -168.546875 C 149.210938 -170.796875 143.394531 -171.921875 135.25 -171.921875 L 134.75 -174.671875 L 196.625 -174.671875 L 196.125 -171.921875 C 187.976562 -171.921875 182.15625 -170.796875 178.65625 -168.546875 C 175.164062 -166.304688 172.671875 -161.523438 171.171875 -154.203125 C 169.679688 -146.890625 168.9375 -135 168.9375 -118.53125 Z M 168.9375 -118.53125 "/></g></g></g><path stroke-linecap="butt" transform="matrix(0.75, 0, 0, 0.75, 140.392685, 62.159967)" fill="none" stroke-linejoin="miter" d="M 225.236852 174.932555 L 225.236852 334.625274 L 214.924351 334.625274 L 58.236841 136.677344 L 58.236841 257.135686 C 58.236841 279.338812 59.242049 295.312772 61.242049 305.057564 C 63.247258 314.807565 66.575383 321.250273 71.236842 324.390898 C 75.893092 327.474232 83.528509 329.021107 94.137885 329.021107 L 94.788926 333.000274 L 12.997254 333.000274 L 13.648296 329.021107 C 24.314963 329.021107 31.976422 327.474232 36.632673 324.390898 C 41.288923 321.250273 44.648298 314.807565 46.70559 305.057564 C 48.814965 295.312772 49.872257 279.338812 49.872257 257.135686 L 49.872257 174.932555 C 49.872257 152.786721 48.814965 136.896094 46.70559 127.255469 C 44.648298 117.56276 41.346215 111.229426 36.794131 108.250259 C 32.247256 105.271092 24.528505 103.781509 13.648296 103.781509 L 12.997254 100.125259 L 58.236841 100.125259 L 216.955601 298.073188 L 216.955601 174.932555 C 216.955601 153.005471 215.898309 137.166928 213.783726 127.416927 C 211.674351 117.614843 208.288934 111.229426 203.632684 108.250259 C 198.976433 105.271092 191.205599 103.781509 180.320182 103.781509 L 179.66914 100.125259 L 262.195187 100.125259 L 261.466021 103.781509 C 250.632687 103.781509 242.893103 105.271092 238.236852 108.250259 C 233.575394 111.229426 230.247269 117.614843 228.24206 127.416927 C 226.24206 137.166928 225.236852 153.005471 225.236852 174.932555 Z M 225.236852 174.932555 " stroke="#5651e5" stroke-width="12.476325" stroke-opacity="1" stroke-miterlimit="4"/><g fill="#808080" fill-opacity="1"><g transform="translate(68.879861, 249.363572)"><g><path d="M 78 -175 C 122.164062 -175 144.25 -158.164062 144.25 -124.5 C 144.25 -109.664062 139.039062 -97.5 128.625 -88 C 118.207031 -78.5 105.832031 -73.75 91.5 -73.75 C 77.164062 -73.75 65 -76.082031 55 -80.75 L 55 -56.5 C 55 -38.664062 55.539062 -26.5 56.625 -20 C 57.707031 -13.5 59.25 -9.414062 61.25 -7.75 C 65.082031 -4.582031 71.164062 -3 79.5 -3 L 80 0 L 12.5 0 L 13 -3 C 21.332031 -3 27.414062 -4.582031 31.25 -7.75 C 35.414062 -11.25 37.5 -27.5 37.5 -56.5 L 37.5 -118.5 C 37.5 -136.332031 36.957031 -148.5 35.875 -155 C 34.789062 -161.5 33.25 -165.582031 31.25 -167.25 C 27.414062 -170.414062 21.332031 -172 13 -172 L 12.5 -175 Z M 55 -169.25 L 55 -87 C 63.664062 -82.332031 73.875 -80 85.625 -80 C 97.375 -80 106.832031 -83.707031 114 -91.125 C 121.164062 -98.539062 124.75 -109.664062 124.75 -124.5 C 124.75 -143 118.75 -155.332031 106.75 -161.5 C 96.914062 -166.664062 85.082031 -169.25 71.25 -169.25 Z M 55 -169.25 "/></g></g></g><path stroke-linecap="butt" transform="matrix(0.75, 0, 0, 0.75, 57.83133, -12.184944)" fill="none" stroke-linejoin="miter" d="M 104.000942 100.684099 C 162.86553 100.684099 192.297823 123.116392 192.297823 167.986186 C 192.297823 187.788271 185.355115 204.038272 171.464489 216.730981 C 157.579071 229.371607 141.084278 235.694524 121.985319 235.694524 C 102.891567 235.694524 86.667608 232.574732 73.323857 226.335148 L 73.323857 258.642442 C 73.323857 282.460152 74.026982 298.710153 75.438441 307.387237 C 76.901982 316.017446 78.990524 321.439321 81.704066 323.66328 C 86.803025 327.897655 94.917609 330.012239 106.037401 330.012239 L 106.688443 334.001822 L 16.683228 334.001822 L 17.33427 330.012239 C 28.454063 330.012239 36.568646 327.897655 41.667605 323.66328 C 47.198855 318.996613 49.964481 297.324736 49.964481 258.642442 L 49.964481 175.960145 C 49.964481 152.199727 49.235314 136.001809 47.771772 127.376809 C 46.360314 118.699725 44.323855 113.246599 41.667605 111.022641 C 36.568646 106.788266 28.454063 104.673682 17.33427 104.673682 L 16.683228 100.684099 Z M 73.323857 108.335141 L 73.323857 218.033065 C 84.88115 224.220565 98.495734 227.309107 114.172818 227.309107 C 129.855111 227.309107 142.469695 222.376815 152.016571 212.501814 C 161.563446 202.626814 166.339488 187.788271 166.339488 167.986186 C 166.339488 143.355976 158.339488 126.918475 142.334278 118.668475 C 129.204069 111.777849 113.41761 108.335141 94.969692 108.335141 Z M 73.323857 108.335141 " stroke="#5651e5" stroke-width="12.499988" stroke-opacity="1" stroke-miterlimit="4"/></svg>