<svg xmlns="http://www.w3.org/2000/svg" xmlns:xlink="http://www.w3.org/1999/xlink" width="500" zoomAndPan="magnify" viewBox="0 0 375 374.999991" height="500" preserveAspectRatio="xMidYMid meet" version="1.0"><defs><g/></defs><g fill="#000000" fill-opacity="1"><g transform="translate(54.048515, 282.833027)"><g><path d="M 28.894531 -28.378906 L 28.894531 -176.972656 L 66.300781 -176.972656 C 95.453125 -176.972656 117.378906 -168.71875 117.378906 -134.921875 C 117.378906 -100.351562 92.871094 -97.773438 68.363281 -84.875 C 57.011719 -78.941406 46.953125 -71.460938 46.179688 -60.367188 C 54.175781 -80.230469 82.292969 -84.359375 102.417969 -89.777344 C 125.894531 -95.96875 145.757812 -106.027344 145.757812 -134.921875 C 145.757812 -165.878906 119.960938 -180.585938 91.582031 -180.585938 L 0 -180.585938 C 0 -180.585938 2.320312 -167.425781 2.320312 -152.207031 L 2.320312 -28.378906 C 2.320312 -13.15625 0 0 0 0 L 31.472656 0 C 31.472656 0 28.894531 -13.15625 28.894531 -28.378906 Z M 28.894531 -28.378906 "/></g></g></g><g fill="#000000" fill-opacity="1"><g transform="translate(170.911888, 282.833027)"><g><path d="M 31.472656 -180.585938 L 0 -180.585938 L 2.578125 -176.714844 L 2.578125 -28.378906 C 2.578125 -13.15625 0 0 0 0 L 17.027344 0 C 17.027344 0 5.933594 -23.734375 5.933594 -46.953125 L 5.933594 -171.039062 L 115.058594 0 L 146.53125 0 L 143.953125 -3.871094 L 143.953125 -152.207031 C 143.953125 -167.425781 146.53125 -180.585938 146.53125 -180.585938 L 129.503906 -180.585938 C 129.503906 -180.585938 140.597656 -156.851562 140.597656 -133.632812 L 140.597656 -9.546875 Z M 31.472656 -180.585938 "/></g></g></g></svg>